<svg version="1.1" id="Layer_1" xmlns="http://www.w3.org/2000/svg" xmlns:xlink="http://www.w3.org/1999/xlink" x="0px" y="0px"
	 width="60.617px" height="60.548px" viewBox="0 0 60.617 60.548" enable-background="new 0 0 60.617 60.548" xml:space="preserve">
<g>
	<path fill-rule="evenodd" clip-rule="evenodd" d="M30.148,25.422C38.678,16.873,47.012,8.52,55.512,0
		c1.597,1.771,2.979,3.305,4.486,4.978c-8.271,8.201-16.643,16.501-25.053,24.84c8.659,8.524,17.064,16.797,25.672,25.27
		c-2.02,1.912-3.554,3.365-5.182,4.906c-8.294-8.314-16.584-16.626-24.818-24.881c-8.432,8.49-16.786,16.901-25.262,25.436
		c-1.96-1.998-3.404-3.471-5.001-5.098c8.43-8.383,16.789-16.697,25.107-24.969C16.89,21.956,8.526,13.638,0,5.158
		C1.947,3.3,3.482,1.835,5.093,0.298C13.379,8.607,21.668,16.919,30.148,25.422z"/>
</g>
</svg>
