<?xml version="1.0" encoding="utf-8"?>
<svg version="1.1" id="Layer_1" xmlns="http://www.w3.org/2000/svg" xmlns:xlink="http://www.w3.org/1999/xlink" x="0px" y="0px"
	 viewBox="0 0 197.524 79.128" enable-background="new 0 0 197.524 79.128"
	 xml:space="preserve">
<path fill="#222222" fill-rule="evenodd" clip-rule="evenodd" d="M0,42C4.328,28.335,7.841,10.06,24.353,6.064c6.176-1.494,8.45,4.436,8.521,9.57
	c0.028,2.024,0.21,7.583-1.933,8.921c-2.551,1.594-4.475-4.991-5.375-6.202c-9.338-12.571-14.87,23.067-14.261,27.429
	c1.146,8.216,5.506,16.323,10.815,5.574c4.776-9.67,1.388-6.997-5.765-8.982c2.146-7.322,11.395-10.637,18.438-10.658
	c8.179-0.021,5.505,4.497,4.551,10.977c-1.623,11.03-3.291,21.508-6.261,32.289c-2.457,8.914-3.468,1.294-3.943-2.845
	c-0.698-6.069-0.801-12.197-1.105-18.294C25.17,59.188,19.566,76,10.905,72.141C0.992,67.724,0,51.037,0,42C2.09,35.4,0,44.666,0,42
	z"/>
<path fill="#222222" fill-rule="evenodd" clip-rule="evenodd" d="M172,0c8.156,1.815,2.923,9.188,6.009,14.016c1.418,2.218,4.17,1.083,5.421,3.31
	c2.043,3.638-2.44,3.427-4.414,4.495c-4.557,2.466-2.701,20.102-2.943,24.757c-0.473,9.089,0.218,17.956,0.023,26.929
	c-21.298-4.136-7.231-33.43-7.559-47.101c-0.074-3.117-12.295,1.086-5.559-8.405c1.678-2.364,5.888-1.338,6.597-4.313
	C170.154,11.256,169.641,0,172,0C176.145,0.922,171.666,0,172,0z"/>
<path fill="#222222" fill-rule="evenodd" clip-rule="evenodd" d="M197,30c-1.385,8.106-0.589,16.867-8.443,20.953
	c-2.777-11.697-1.047-25.24-0.984-37.248c0.026-5.122,3.885-6.306,7.678-2.5C198.979,14.949,197,24.805,197,30
	C196.166,34.881,197,24.333,197,30z"/>
<path fill="#222222" fill-rule="evenodd" clip-rule="evenodd" d="M128.288,36.999c3.697-7.26,5.967-17.605,15.077-18.244
	c-0.799,10.247-11.792,27.713-4.926,37.604c4.042-5.362,9.994-32.923,17.592-28.873c4.848,2.584,1.798,17.125,1.862,21.749
	c0.115,8.28,1.124,16.564,1.16,24.73c-9.04-3.371-11.32-12.415-11.32-21.335c-2.161,3.649-7.284,16.456-13.327,15.123
	c-7.343-1.62-7.093-12.558-8.004-18.136c-7.043,10.22-21.329,33.993-34.821,16.607c-8.52-10.979-8.274-41.476,9.379-44.03
	c-0.127,10.108-7.373,18.968-2.81,29.225c4.96,11.15,15.188,11.999,19.135-0.084c2.596-7.948,2.472-17.723-0.925-25.424
	c-5.22-11.837-13.825-6.804-23.579-5.503c1.002-11.694,10.989-18.502,22.559-12.888C126.938,13.147,128.288,25.637,128.288,36.999
	C130.811,32.046,128.288,34.201,128.288,36.999z"/>
<path fill="#222222" fill-rule="evenodd" clip-rule="evenodd" d="M71.221,37.472c-0.357,10.337-4.14,26.318-14.63,31.129
	c-13.637,6.255-17.074-16.505-14.772-24.919c0.563-2.09,1.323-4.104,2.278-6.041c1.245-3.062-1.583-3.671-1.201-6.374
	c0.616-4.364,4.009-7.983,7.861-9.826C62.143,15.993,71.221,26.901,71.221,37.472C70.917,46.266,71.221,36.309,71.221,37.472z
	 M48.461,45.395c1.065,3.065,3.196,15.723,8.41,13.938c5.031-1.721,7.062-8.719,7.446-13.353c0.391-4.726-0.447-11.358-4.807-14.235
	C51.44,26.42,49.622,41.008,48.461,45.395C49.75,49.104,49.577,41.178,48.461,45.395z"/>
<path fill="#222222" fill-rule="evenodd" clip-rule="evenodd" d="M184.694,62.312c-0.066-7.11,9.71-11.527,9.602-2.55
	C194.215,66.542,184.493,70.817,184.694,62.312C184.654,58.047,184.63,65.033,184.694,62.312z"/>
</svg>
