<svg version="1.1" id="Layer_1" xmlns="http://www.w3.org/2000/svg" xmlns:xlink="http://www.w3.org/1999/xlink" x="0px" y="0px"
	 viewBox="0 0 825.13 324.423" enable-background="new 0 0 825.13 324.423"
	 xml:space="preserve">
<path fill="#ffffff" fill-rule="evenodd" clip-rule="evenodd" d="M0.023,190.136c0.149-22.778,2.645-43.285,9.266-63.105
	c8.627-25.824,21.063-49.55,39.53-69.841c10.209-11.218,21.667-20.823,35.292-27.677c6.242-3.14,12.677-5.697,19.635-6.777
	c7.27-1.129,13.464,0.706,18.285,6.459c5.098,6.086,8.169,13.181,9.825,20.842c1.695,7.842,2.338,15.822,1.528,23.842
	c-0.665,6.583-2.595,12.833-5.511,18.764c-0.521,1.059-1.231,2.083-2.058,2.923c-2.395,2.433-5.682,2.253-7.625-0.565
	c-0.918-1.333-1.332-3.035-1.858-4.608c-0.504-1.507-0.743-3.107-1.297-4.593c-3.344-8.961-8.793-16.441-16.02-22.681
	c-3.446-2.976-7.374-4.736-11.897-5.155c-4.012-0.372-7.692,0.744-10.795,3.173c-2.561,2.005-4.986,4.281-7.077,6.768
	c-5.021,5.973-8.785,12.768-12.102,19.804c-6.754,14.326-11.231,29.39-14.468,44.853c-2.447,11.69-3.845,23.504-4.112,35.444
	c-0.199,8.921,1.147,17.704,2.706,26.442c1.812,10.163,4.146,20.213,8.112,29.786c1.464,3.535,3.186,6.989,5.097,10.304
	c1.221,2.116,2.905,4,4.568,5.817c1.476,1.612,3.44,2.583,5.55,3.202c2.256,0.662,4.382,0.499,6.449-0.756
	c2.779-1.687,5.142-3.841,7.079-6.401c2.409-3.185,4.781-6.419,6.892-9.804c7.57-12.141,13.136-25.222,17.807-38.703
	c1.282-3.7,2.534-7.411,3.757-11.13c0.792-2.408,0.293-3.674-2.096-4.453c-1.879-0.611-3.884-1.025-5.855-1.132
	c-8.858-0.48-17.583,0.357-26.002,3.315c-2.177,0.765-4.094,0.354-5.978-0.654c-1.356-0.726-1.56-1.396-0.837-2.737
	c0.643-1.192,1.388-2.34,2.182-3.439c4.144-5.744,8.943-10.858,14.617-15.129c12.642-9.515,26.609-16.182,42.143-19.357
	c9.304-1.901,18.739-2.083,28.186-1.418c3.345,0.235,6.682,0.646,10.004,1.106c2.808,0.388,3.842,1.532,3.531,4.368
	c-0.347,3.165-0.79,6.383-1.744,9.403c-1.826,5.784-3.983,11.466-6.132,17.143c-0.691,1.824-1.083,3.627-1.233,5.567
	c-0.85,11-1.7,22.001-2.728,32.984c-0.871,9.311-1.818,18.62-3.029,27.892c-1.686,12.916-3.563,25.81-5.519,38.688
	c-1.633,10.752-3.715,21.433-6.955,31.828c-1.661,5.33-3.713,10.547-5.801,15.729c-0.763,1.893-1.965,3.688-3.301,5.241
	c-0.938,1.091-2.352,1.92-3.714,2.457c-1.561,0.616-2.451,0.138-2.96-1.49c-0.591-1.89-1.147-3.866-1.232-5.826
	c-0.433-9.987-0.6-19.985-1.065-29.971c-0.731-15.655-1.513-31.31-2.505-46.95c-0.455-7.172-1.459-14.31-2.222-21.462
	c-0.196-1.839-1.12-3.335-2.412-4.576c-1.741-1.674-3.691-1.135-4.393,1.183c-0.556,1.836-0.976,3.712-1.551,5.541
	c-6.073,19.324-14.235,37.693-25.522,54.56c-3.236,4.837-7.062,9.283-10.688,13.852c-0.988,1.244-2.227,2.292-3.37,3.409
	c-6.075,5.936-13.252,7.251-21.286,5.132c-6.303-1.662-11.541-5.044-15.938-9.771c-7.728-8.308-13.298-17.965-17.557-28.416
	c-5.396-13.242-8.953-26.981-11.124-41.103C0.961,208.302-0.177,198.305,0.023,190.136z"/>
<path fill="#ffffff" fill-rule="evenodd" clip-rule="evenodd" d="M501.695,166.126c-0.407-20.797-2.952-39.172-9.554-56.829
	c-4.069-10.884-9.563-20.939-17.729-29.358c-5.479-5.649-11.681-10.226-19.359-12.423c-8.711-2.492-17.393-2.078-25.991,0.613
	c-8.288,2.594-16.087,6.252-23.363,10.993c-3.706,2.416-7.771,3.632-12.132,4.139c-2.18,0.253-3.699-0.49-4.901-2.234
	c-2.138-3.1-2.415-6.595-1.936-10.128c2.03-14.972,9.644-26.47,21.874-35.171c9.984-7.104,21.051-10.96,33.216-11.844
	c1.913-0.139,3.826-0.272,5.738-0.415c8.597-0.639,16.833,1.054,25.005,3.564c15.52,4.768,27.618,14.304,37.284,26.974
	c12.649,16.58,20.601,35.231,23.46,55.99c1.511,10.963,2.174,21.964,1.792,33.011c-0.802,23.177-5.792,45.438-14.859,66.792
	c-9.501,22.375-22.315,42.613-39.074,60.258c-9.07,9.549-19.573,17.276-31.729,22.418c-16.403,6.937-32.27,5.066-47.161-4.363
	c-10.193-6.455-17.812-15.475-23.831-25.878c-7.458-12.892-11.978-26.801-14.462-41.429c-1.968-11.578-2.369-23.224-1.332-34.901
	c2.429-27.345,11.831-52.067,28.264-74.071c5.254-7.036,11.529-13.072,18.801-18.017c2.108-1.434,4.379-2.634,6.613-3.874
	c0.832-0.461,1.748-0.814,2.667-1.066c2.659-0.731,4.546,0.913,4.019,3.605c-0.271,1.389-0.821,2.76-1.455,4.035
	c-4.384,8.813-8.378,17.793-11.594,27.1c-4.748,13.741-7.708,27.864-8.845,42.362c-0.982,12.527-0.546,25.001,3.039,37.091
	c5.346,18.026,14.582,33.683,29.467,45.615c0.936,0.75,1.945,1.408,2.867,2.173c11.341,9.41,26.887,5.767,35.104-1.479
	c4.722-4.164,8.57-9.047,11.926-14.338c5.312-8.377,8.9-17.514,11.682-26.982C499.422,193.708,501.474,179.027,501.695,166.126z"/>
<path fill="#ffffff" fill-rule="evenodd" clip-rule="evenodd" d="M533.83,208.213c0.628-22.017,4.815-43.362,11.799-64.174
	c6.158-18.353,14.396-35.723,25.241-51.803c1.608-2.386,3.395-4.65,5.021-7.025c4.327-6.319,10.21-9.741,17.942-9.827
	c1.999-0.022,3.999-0.194,5.995-0.143c2.92,0.075,3.64,1.256,2.31,3.787c-11.509,21.892-19.128,45.134-24.057,69.304
	c-2.109,10.343-3.652,20.775-4.607,31.293c-1.282,14.114-1.452,28.264-1.321,42.418c0.024,2.698,0.549,5.396,0.904,8.085
	c0.104,0.783,0.367,1.558,0.647,2.302c1.602,4.248,4.43,5.267,8.271,2.822c1.533-0.977,3.029-2.16,4.188-3.545
	c2.511-2.997,4.983-6.06,7.137-9.316c8.021-12.13,14.057-25.276,19.296-38.793c6.568-16.95,11.84-34.292,15.141-52.189
	c0.898-4.868,1.728-9.781,2.061-14.71c0.237-3.508,2.12-5.148,4.961-6.246c2.68-1.035,5.457-1.133,8.25-0.497
	c6.838,1.558,12.365,4.998,16.193,11.034c2.115,3.333,2.822,6.892,2.342,10.732c-1.079,8.643-2.288,17.271-3.264,25.925
	c-0.822,7.307-1.557,14.631-2.033,21.967c-0.783,12.045-1.506,24.1-1.92,36.161c-0.464,13.517,0.103,27.027,1.405,40.491
	c0.955,9.87,2.224,19.699,5.205,29.216c1.461,4.665,3.285,9.173,5.569,13.502c0.664,1.259,1.218,2.627,1.523,4.011
	c0.55,2.484-1.309,4.047-3.72,3.254c-0.528-0.173-1.023-0.45-1.529-0.69c-6.597-3.14-12.323-7.479-16.992-13.062
	c-3.119-3.73-6.156-7.609-8.644-11.773c-8.297-13.887-13.673-28.828-15.481-44.994c-0.882-7.877-1.443-15.761-1.414-23.687
	c0.004-1.039,0.05-2.097-0.126-3.11c-0.111-0.632-0.477-1.393-0.974-1.716c-0.275-0.179-1.225,0.283-1.579,0.702
	c-0.761,0.896-1.459,1.893-1.961,2.953c-4.004,8.452-7.748,17.033-11.985,25.363c-3.62,7.117-7.655,14.034-11.756,20.891
	c-3.332,5.57-7.406,10.627-12.045,15.193c-1.194,1.176-2.491,2.249-3.769,3.338c-5.146,4.391-10.924,4.858-17.101,2.691
	c-3.639-1.276-6.62-3.49-9.088-6.436c-5.183-6.184-8.389-13.354-10.661-21.021c-2.81-9.48-4.247-19.184-4.829-29.025
	C534.108,217.321,534.006,212.765,533.83,208.213z"/>
<path fill="#ffffff" fill-rule="evenodd" clip-rule="evenodd" d="M196.011,134.216c-1.124-0.81-2.012-0.486-2.911-0.085
	c-1.751,0.781-3.5,1.571-5.272,2.304c-0.958,0.396-1.938,0.803-2.947,0.993c-3.15,0.593-5.416-0.803-5.835-3.996
	c-0.461-3.504-0.071-6.843,0.979-10.161c2.718-8.586,7.565-15.835,14.012-22.03c7.9-7.591,16.844-13.606,27.577-16.271
	c20.065-4.98,37.569,0.307,52.261,14.494c10.361,10.005,16.466,22.476,18.873,36.703c2.049,12.108,1.596,24.184-0.322,36.277
	c-3.556,22.418-10.465,43.796-19.795,64.422c-4.636,10.251-10.544,19.735-17.968,28.23c-4.014,4.594-8.467,8.713-13.452,12.244
	c-9.562,6.775-20.081,8.743-31.456,6.141c-5.681-1.299-10.501-4.193-14.583-8.338c-5.494-5.577-10.021-11.851-13.247-18.986
	c-7.284-16.112-11.215-32.939-10.354-50.717c0.51-10.525,2.823-20.707,5.924-30.752c4.081-13.217,9.748-25.685,17.126-37.381
	c0.426-0.674,0.802-1.382,1.159-2.095C195.912,134.945,195.922,134.617,196.011,134.216z M271.254,179.403
	c-0.45-4.365-0.764-8.749-1.376-13.091c-1.798-12.757-6.609-24.229-14.333-34.614c-7.168-9.637-18.58-11.374-27.144-9.151
	c-6.503,1.688-11.323,5.734-15.293,10.961c-4.084,5.377-6.587,11.479-8.226,17.974c-2.913,11.551-3.643,23.333-3.897,35.19
	c-0.246,11.497,1.732,22.599,5.388,33.437c2.705,8.018,6.345,15.559,12.138,21.854c1.5,1.631,3.206,3.176,5.078,4.341
	c5.169,3.217,10.696,3.798,16.209,0.995c2.681-1.363,5.239-3.095,7.556-5.018c4.419-3.666,7.699-8.336,10.499-13.304
	C266.516,213.609,270.709,197.043,271.254,179.403z"/>
<path fill="#ffffff" fill-rule="evenodd" clip-rule="evenodd" d="M742.161,43.091c-0.198,5.27-0.397,10.541-0.596,15.811
	c-0.021,0.559-0.058,1.118-0.068,1.677c-0.018,0.977,0.53,1.479,1.444,1.579c0.793,0.086,1.595,0.123,2.394,0.125
	c6.878,0.016,13.446,1.771,19.996,3.592c3.353,0.933,4.642,3.71,5.532,6.695c0.745,2.501,0.611,5.066,0.098,7.601
	c-0.398,1.964-1.063,2.539-3.098,2.624c-3.835,0.161-7.671,0.28-11.509,0.387c-4.341,0.121-8.571,0.852-12.746,2.05
	c-1.629,0.467-2.425,1.4-2.584,3.015c-0.619,6.285-1.266,12.566-1.865,18.853c-0.918,9.629-1.824,19.259-2.699,28.892
	c-0.564,6.21-1.103,12.423-1.588,18.64c-0.79,10.123-1.555,20.247-2.274,30.375c-0.396,5.582-0.736,11.171-1.003,16.762
	c-0.76,15.898-1.4,31.802-1.016,47.725c0.414,17.117,2.698,33.93,8.379,50.171c0.08,0.226,0.159,0.452,0.223,0.683
	c0.331,1.199,0.518,2.463-0.529,3.349c-0.944,0.8-2.104,0.975-3.377,0.547c-10.26-3.449-19.359-8.592-26.465-17.033
	c-9.065-10.77-14.546-23.047-16.356-36.974c-0.589-4.527-0.769-9.082-0.373-13.645c0.698-8.042,1.138-16.116,2.152-24.119
	c1.275-10.063,2.785-20.111,4.614-30.09c3.04-16.592,5.762-33.228,7.928-49.954c1.087-8.401,2.137-16.809,3.064-25.229
	c0.367-3.331,0.369-6.703,0.504-10.058c0.025-0.633-0.058-1.281-0.172-1.907c-0.285-1.562-0.92-2.065-2.498-1.79
	c-1.492,0.261-2.96,0.675-4.428,1.06c-5.511,1.445-10.729,3.667-15.92,5.973c-1.157,0.514-2.384,0.988-3.625,1.173
	c-2.568,0.383-3.726-0.539-4.078-3.132c-0.48-3.522-0.129-7.03,0.495-10.5c1.164-6.465,3.889-12.306,7.235-17.907
	c1.158-1.938,2.77-2.977,4.916-3.461c6.01-1.357,12.046-2.509,18.213-2.846c0.398-0.022,0.803-0.031,1.194-0.104
	c1.694-0.319,2.532-1.143,2.717-2.857c0.487-4.53,1.116-9.057,1.335-13.602c0.478-9.902,0.824-19.812,1.04-29.723
	c0.092-4.227-0.284-8.464-0.431-12.697c-0.022-0.637-0.035-1.294,0.092-1.912c0.359-1.763,1.637-3.021,3.301-2.898
	c4.381,0.326,8.771,0.695,12.876,2.503c3.481,1.535,5.468,4.028,6.142,7.914C740.625,21.241,741.842,32.104,742.161,43.091z"/>
<path fill="#ffffff" fill-rule="evenodd" clip-rule="evenodd" d="M793.359,121.359c-0.461-16.096-0.639-30.733-1.381-45.342
	c-0.523-10.287-1.796-20.537-2.787-30.797c-0.137-1.422-0.614-2.808-0.872-4.222c-0.662-3.626,0.886-5.683,4.59-6.032
	c5.381-0.507,10.486,0.684,15.459,2.624c0.372,0.145,0.726,0.34,1.102,0.471c10.199,3.568,14.856,11.442,15.393,21.563
	c0.541,10.202,0.135,20.463-0.095,30.693c-0.148,6.629-0.583,13.261-1.144,19.869c-0.736,8.679-1.588,17.353-2.638,25.999
	c-1.214,9.994-2.601,19.969-4.097,29.925c-1.163,7.741-2.496,15.462-3.977,23.149c-0.728,3.781-3.113,6.787-5.627,9.62
	c-4.049,4.564-9.278,7.228-14.889,9.317c-1.165,0.434-1.908,0.065-2.43-0.804c-0.396-0.659-0.691-1.487-0.701-2.244
	c-0.032-2.394-0.004-4.795,0.172-7.181c0.739-10.044,1.783-20.072,2.262-30.127C792.459,151.873,792.858,135.886,793.359,121.359z"
	/>
<path fill="#ffffff" fill-rule="evenodd" clip-rule="evenodd" d="M776.352,259.719c0.509-3.629,0.769-7.314,1.574-10.876
	c2.414-10.671,9.317-17.588,19.115-21.801c1.269-0.546,2.967-0.286,4.438-0.129c4.892,0.524,8.21,3.073,9.98,7.76
	c1.877,4.965,2.642,9.97,1.77,15.264c-0.771,4.682-1.909,9.225-4.002,13.49c-3.779,7.701-10.038,11.992-18.448,13.274
	c-0.474,0.071-0.962,0.073-1.426,0.185c-3.85,0.927-6.696-0.79-9.054-3.553c-2.197-2.576-3.207-5.688-3.467-9.024
	c-0.117-1.508-0.021-3.032-0.021-4.549C776.659,259.746,776.505,259.732,776.352,259.719z"/>
</svg>
