<svg version="1.1" id="Layer_1" xmlns="http://www.w3.org/2000/svg" xmlns:xlink="http://www.w3.org/1999/xlink" x="0px" y="0px"
     viewBox="0 0 18 18" enable-background="new 0 0 17.988 18" xml:space="preserve"><path fill="#333333" d="M7.56,13.127c-3.186,0-5.768-2.537-5.768-5.671c0-3.135,2.582-5.677,5.768-5.677
    c3.185,0,5.768,2.542,5.768,5.677C13.328,10.59,10.745,13.127,7.56,13.127L7.56,13.127z M13.264,12.056
    c1.202-1.307,1.707-2.785,1.707-4.687C14.971,3.298,11.619,0,7.485,0C3.351,0,0,3.298,0,7.369c0,4.065,3.351,7.364,7.485,7.364
    c1.786,0,3.185-0.425,4.472-1.453l4.67,4.643c0.226,0.222,0.771-0.075,0.995-0.297c0.226-0.218,0.509-0.815,0.284-1.038
    L13.264,12.056z"/></svg>
